HIERARCHY
ROOT Hips
{
	OFFSET 0.000000 0.000000 0.000000
	CHANNELS 6 Xposition Yposition Zposition Zrotation Yrotation Xrotation 
	JOINT LHipJoint
	{
		OFFSET 0.000000 0.000000 0.000000
		CHANNELS 3 Zrotation Yrotation Xrotation
		JOINT LeftUpLeg
		{
			OFFSET 1.363060 -1.794630 0.839290
			CHANNELS 3 Zrotation Yrotation Xrotation
			JOINT LeftLeg
			{
				OFFSET 2.448110 -6.726130 0.000000
				CHANNELS 3 Zrotation Yrotation Xrotation
				JOINT LeftFoot
				{
					OFFSET 2.562200 -7.039590 0.000000
					CHANNELS 3 Zrotation Yrotation Xrotation
					JOINT LeftToeBase
					{
						OFFSET 0.157640 -0.433110 2.322550
						CHANNELS 3 Zrotation Yrotation Xrotation
						End Site
						{
							OFFSET 0.000000 0.000000 0.000000
						}
					}
				}
			}
		}
	}
	JOINT RHipJoint
	{
		OFFSET 0.000000 0.000000 0.000000
		CHANNELS 3 Zrotation Yrotation Xrotation
		JOINT RightUpLeg
		{
			OFFSET -1.305520 -1.794630 0.839290
			CHANNELS 3 Zrotation Yrotation Xrotation
			JOINT RightLeg
			{
				OFFSET -2.542530 -6.985550 0.000000
				CHANNELS 3 Zrotation Yrotation Xrotation
				JOINT RightFoot
				{
					OFFSET -2.568260 -7.056230 0.000000
					CHANNELS 3 Zrotation Yrotation Xrotation
					JOINT RightToeBase
					{
						OFFSET -0.164730 -0.452590 2.363150
						CHANNELS 3 Zrotation Yrotation Xrotation
						End Site
						{
							OFFSET 0.000000 0.000000 0.000000
						}
					}
				}
			}
		}
	}
	JOINT LowerBack
	{
		OFFSET 0.000000 0.000000 0.000000
		CHANNELS 3 Zrotation Yrotation Xrotation
		JOINT Spine
		{
			OFFSET 0.028270 2.035590 -0.193380
			CHANNELS 3 Zrotation Yrotation Xrotation
			JOINT Spine1
			{
				OFFSET 0.056720 2.048850 -0.042750
				CHANNELS 3 Zrotation Yrotation Xrotation
				JOINT Neck
				{
					OFFSET 0.000000 0.000000 0.000000
					CHANNELS 3 Zrotation Yrotation Xrotation
					JOINT Neck1
					{
						OFFSET -0.054170 1.746240 0.172020
						CHANNELS 3 Zrotation Yrotation Xrotation
						JOINT Head
						{
							OFFSET 0.104070 1.761360 -0.123970
							CHANNELS 3 Zrotation Yrotation Xrotation
							End Site
							{
								OFFSET 0.000000 0.000000 0.000000
							}
						}
					}
				}
				JOINT LeftShoulder
				{
					OFFSET 0.000000 0.000000 0.000000
					CHANNELS 3 Zrotation Yrotation Xrotation
					JOINT LeftArm
					{
						OFFSET 3.362410 1.200890 -0.311210
						CHANNELS 3 Zrotation Yrotation Xrotation
						JOINT LeftForeArm
						{
							OFFSET 4.983000 -0.000000 -0.000000
							CHANNELS 3 Zrotation Yrotation Xrotation
							JOINT LeftHand
							{
								OFFSET 3.483560 -0.000000 -0.000000
								CHANNELS 3 Zrotation Yrotation Xrotation
								JOINT LeftFingerBase
								{
									OFFSET 0.000000 0.000000 0.000000
									CHANNELS 3 Zrotation Yrotation Xrotation
									JOINT LeftHandIndex1
									{
										OFFSET 0.715260 -0.000000 -0.000000
										CHANNELS 3 Zrotation Yrotation Xrotation
										End Site
										{
											OFFSET 0.000000 0.000000 0.000000
										}
									}
								}
								JOINT LThumb
								{
									OFFSET 0.000000 0.000000 0.000000
									CHANNELS 3 Zrotation Yrotation Xrotation
									End Site
									{
										OFFSET 0.000000 0.000000 0.000000
									}
								}
							}
						}
					}
				}
				JOINT RightShoulder
				{
					OFFSET 0.000000 0.000000 0.000000
					CHANNELS 3 Zrotation Yrotation Xrotation
					JOINT RightArm
					{
						OFFSET -3.136600 1.374050 -0.404650
						CHANNELS 3 Zrotation Yrotation Xrotation
						JOINT RightForeArm
						{
							OFFSET -5.241900 -0.000000 -0.000000
							CHANNELS 3 Zrotation Yrotation Xrotation
							JOINT RightHand
							{
								OFFSET -3.444170 -0.000000 -0.000000
								CHANNELS 3 Zrotation Yrotation Xrotation
								JOINT RightFingerBase
								{
									OFFSET 0.000000 0.000000 0.000000
									CHANNELS 3 Zrotation Yrotation Xrotation
									JOINT RightHandIndex1
									{
										OFFSET -0.622530 -0.000000 -0.000000
										CHANNELS 3 Zrotation Yrotation Xrotation
										End Site
										{
											OFFSET 0.000000 0.000000 0.000000
										}
									}
								}
								JOINT RThumb
								{
									OFFSET 0.000000 0.000000 0.000000
									CHANNELS 3 Zrotation Yrotation Xrotation
									End Site
									{
										OFFSET 0.000000 0.000000 0.000000
									}
								}
							}
						}
					}
				}
			}
		}
	}
}
MOTION
Frames: 10
Frame Time: 0.008333
-0.246016 18.117269 1.970009 -177.644870 24.802164 -177.031762 -1.565924 2.228595 2.721898 -18.880217 -0.151437 -5.184701 -1.098772 2.935296 10.020324 -1.344014 11.501804 -3.394323 0.064800 1.642700 4.519200 -0.731472 -1.939498 0.734951 20.893312 -4.818041 -14.749606 -1.524791 -7.867932 23.537191 2.835590 -17.990827 -11.845255 -0.214600 -2.982000 8.228700 -0.788314 -0.001696 8.462497 1.880084 0.051309 2.153028 0.613256 0.059631 -5.777927 -12.568392 -10.011406 -14.242882 8.443656 -11.355460 26.291532 4.361800 -4.683100 16.314300 -6.131074 -0.290022 -1.544563 -84.719253 7.093155 29.870047 16.381074 -22.988552 -3.878274 -0.976373 -1.771468 6.247592 19.764070 20.120942 7.993700 -7.125000 0.000000 0.000000 -8.615800 53.109500 -1.729000 4.987922 1.284151 -0.879190 85.635729 -2.361401 24.855792 -24.654223 34.058142 -7.823838 0.299531 -0.074778 2.741999 -15.710700 9.364726 -2.687500 7.125000 0.000000 0.000000 7.819500 -20.236800 4.675300 
-0.266113 18.116972 1.975553 -177.634264 26.074610 -177.037600 -1.572873 2.243455 2.740568 -19.019028 0.377140 -5.055145 -1.135214 2.772636 9.581809 -1.438333 12.222584 -3.428605 0.067200 1.672800 4.602400 -0.738716 -1.950395 0.728187 20.910538 -5.618929 -15.344332 -1.618114 -8.101718 24.226232 2.943918 -18.595229 -12.478919 -0.318600 -3.628400 10.033400 -0.875736 0.071891 8.452894 1.866115 0.138360 2.151456 0.622830 0.102037 -5.783822 -12.724791 -10.056077 -14.117087 8.533213 -11.415129 26.289855 4.421000 -4.724700 16.314800 -6.133298 -0.283771 -1.541677 -84.675518 7.118264 29.614282 16.349022 -22.941053 -3.862319 -0.902292 -1.801540 7.384695 18.192603 20.793417 7.515100 -7.125000 0.000000 0.000000 -10.592800 53.524400 -2.240200 4.985835 1.290790 -0.877144 85.613620 -2.444869 24.893086 -24.721948 34.132367 -7.866909 0.294340 -0.074782 2.827127 -15.469694 9.334092 -2.635600 7.125000 0.000000 0.000000 7.995900 -20.281600 4.774600 
-0.285715 18.116081 1.979909 -177.748141 27.385384 -177.109821 -1.579510 2.257033 2.758240 -19.276577 0.957476 -4.898912 -1.172401 2.597007 9.114909 -1.533836 12.954829 -3.522442 0.092200 1.958200 5.390000 -0.746951 -1.961009 0.720896 20.794929 -6.407842 -15.988791 -1.731322 -8.360694 24.989687 3.033379 -19.064525 -12.800384 -0.354500 -3.825200 10.585400 -1.057847 0.144606 8.379598 1.797034 0.214743 2.187199 0.612366 0.139986 -5.701479 -12.772469 -10.033192 -13.897277 8.699602 -11.436020 26.053641 4.489900 -4.737000 16.160100 -6.133249 -0.277595 -1.535841 -84.506140 7.086511 29.602556 16.314789 -22.897080 -3.847996 -0.841424 -1.819900 8.030203 17.007083 21.157723 7.091000 -7.125000 0.000000 0.000000 -12.032500 53.675800 -2.596000 4.984511 1.300138 -0.872915 85.618211 -2.487170 25.020455 -24.737715 34.153654 -7.878257 0.292991 -0.082202 2.886378 -15.390310 9.643625 -2.709000 7.125000 0.000000 0.000000 8.046900 -19.961100 4.864200 
-0.305218 18.119942 1.982780 -177.872366 28.644173 -177.117956 -1.586894 2.267489 2.773299 -19.541275 1.474353 -4.746127 -1.215590 2.388747 8.560947 -1.625852 13.655414 -3.611187 0.124600 2.275500 6.267600 -0.755474 -1.972759 0.716329 20.679236 -7.191087 -16.750430 -1.864142 -8.645908 25.835366 3.092783 -19.371997 -12.945680 -0.369800 -3.906000 10.812300 -1.193091 0.213831 8.306618 1.702337 0.286078 2.152793 0.546390 0.177617 -5.706399 -12.659110 -10.021308 -13.905429 8.610029 -11.456071 26.167700 4.432600 -4.742900 16.204500 -6.125919 -0.280986 -1.535306 -84.292300 7.209213 29.894814 16.321629 -22.923564 -3.856689 -0.841013 -1.818051 7.801721 17.109406 21.112601 7.123300 -7.125000 0.000000 0.000000 -11.900700 53.646400 -2.558400 4.978471 1.290887 -0.877884 85.657460 -2.588547 25.081254 -24.705396 34.121721 -7.858973 0.293194 -0.091905 2.927863 -15.399869 10.034932 -2.821500 7.125000 0.000000 0.000000 8.032700 -19.549600 4.930000 
-0.322840 18.124298 1.988027 -177.850603 29.951781 -177.022242 -1.593194 2.286815 2.795234 -19.661617 2.070900 -4.527452 -1.270775 2.085971 7.754542 -1.714782 14.328979 -3.576524 0.148200 2.480800 6.836300 -0.769322 -1.982328 0.714931 20.694950 -7.616182 -17.371677 -2.009095 -8.947397 26.752232 3.107035 -19.519287 -13.339795 -0.486700 -4.473300 12.412000 -1.258488 0.301071 8.279789 1.691989 0.388977 2.071889 0.550770 0.226862 -5.820063 -12.852150 -10.085693 -13.733217 8.742689 -11.544576 26.120867 4.511000 -4.796800 16.188000 -6.117571 -0.264380 -1.541549 -84.255171 7.458404 29.963952 16.356977 -22.985277 -3.875572 -0.879922 -1.804261 7.663020 17.799059 20.973449 7.390900 -7.125000 0.000000 0.000000 -11.097300 53.631300 -2.378100 4.971472 1.296927 -0.878399 85.653651 -2.820385 25.060475 -24.733608 34.149887 -7.875827 0.289777 -0.096436 2.953208 -15.247615 10.196188 -2.837600 7.125000 0.000000 0.000000 8.140200 -19.388700 5.026900 
-0.340264 18.124199 1.991393 -178.050838 31.224676 -177.084495 -1.594517 2.309487 2.815296 -20.000274 2.681655 -4.120231 -1.330255 1.703126 6.743675 -1.805955 15.074574 -3.282341 0.125100 2.280300 6.281100 -0.782327 -1.989782 0.713262 20.452731 -8.033060 -17.871062 -2.163063 -9.254801 27.696667 3.065790 -19.435051 -13.776277 -0.661800 -5.203000 14.488400 -1.497179 0.375756 8.188239 1.642164 0.461802 2.067900 0.593958 0.261451 -5.788451 -13.121970 -10.171178 -13.572839 9.001054 -11.665499 25.959510 4.645000 -4.862300 16.137600 -6.122788 -0.249430 -1.540143 -84.208998 7.434764 29.881507 16.309820 -22.921261 -3.849601 -0.898130 -1.802917 7.806597 17.981381 21.060311 7.501400 -7.125000 0.000000 0.000000 -10.936900 53.757500 -2.376900 4.968062 1.315612 -0.872033 85.621381 -2.921008 25.115180 -24.783533 34.204492 -7.908822 0.284074 -0.094789 2.891512 -14.954680 10.129815 -2.762500 7.125000 0.000000 0.000000 8.352900 -19.474600 5.144800 
-0.355114 18.124298 1.989908 -178.380901 32.316844 -177.282306 -1.584285 2.342695 2.839249 -20.426771 3.188057 -3.434418 -1.396654 1.199099 5.419225 -1.891618 15.863908 -2.698266 0.092400 1.960900 5.397600 -0.796531 -2.003263 0.707227 20.094642 -8.664827 -18.332962 -2.327086 -9.564756 28.649072 3.041698 -19.380765 -13.941908 -0.723500 -5.435100 15.153900 -1.765888 0.400488 8.051069 1.526979 0.467850 2.087316 0.571708 0.264298 -5.683161 -13.171349 -10.219636 -13.500610 9.067003 -11.761274 25.919120 4.663500 -4.907800 16.123500 -6.131869 -0.253516 -1.532167 -84.035360 7.280038 29.814753 16.218471 -22.796365 -3.802881 -0.897138 -1.798975 7.942588 17.854892 21.073482 7.448300 -7.125000 0.000000 0.000000 -11.074200 53.743300 -2.403500 4.966299 1.322277 -0.869337 85.649059 -2.909610 25.059578 -24.750981 34.175958 -7.892816 0.277097 -0.098187 2.923416 -14.608730 10.253157 -2.728900 7.125000 0.000000 0.000000 8.600000 -19.364900 5.321700 
-0.369073 18.129446 1.990007 -178.419876 33.508786 -177.312403 -1.549025 2.420737 2.893063 -20.577212 4.009401 -2.122252 -1.492495 0.163662 2.711662 -1.942117 16.632790 -1.661974 0.096800 2.006000 5.522300 -0.829226 -2.029514 0.695608 20.018903 -9.089683 -18.726580 -2.493357 -9.869785 29.594294 3.001441 -19.255238 -14.096488 -0.850900 -5.883300 16.446100 -1.835981 0.431603 7.964361 1.500825 0.504551 2.063743 0.553717 0.274959 -5.678274 -13.257314 -10.240081 -13.435917 9.119259 -11.797623 25.945999 4.698600 -4.933300 16.141000 -6.135221 -0.260098 -1.527587 -83.929631 7.216880 29.712887 16.170798 -22.731615 -3.776434 -0.882448 -1.823333 7.762659 17.616980 21.390695 7.442300 -7.125000 0.000000 0.000000 -11.470000 54.035700 -2.573500 4.965549 1.322785 -0.869593 85.606825 -2.968363 25.012594 -24.637573 34.056133 -7.826042 0.271977 -0.103201 2.947589 -14.364451 10.420898 -2.725700 7.125000 0.000000 0.000000 8.772400 -19.202800 5.463000 
-0.385013 18.132614 1.993274 -178.482652 34.829618 -177.414691 -1.550278 2.438970 2.909944 -20.740582 4.650533 -1.827242 -1.511628 -0.093165 2.059632 -2.013602 17.162824 -1.956827 0.138900 2.402100 6.618400 -0.846826 -2.034890 0.694281 19.855312 -9.266237 -19.007786 -2.669964 -10.175817 30.578144 2.953449 -19.133586 -14.459599 -1.067500 -6.568400 18.442800 -1.923143 0.513110 8.016009 1.476491 0.601249 2.041111 0.543275 0.323424 -5.752744 -13.291583 -10.230925 -13.411403 9.096085 -11.790747 25.933859 4.694400 -4.946100 16.131300 -6.136133 -0.260732 -1.528647 -83.935663 7.266390 29.363693 16.163695 -22.720228 -3.769419 -0.863426 -1.834113 7.805618 17.292944 21.520131 7.333800 -7.125000 0.000000 0.000000 -11.880500 54.109800 -2.689100 4.965174 1.320805 -0.871541 85.564248 -3.056941 24.962151 -24.507364 33.914580 -7.747875 0.269014 -0.107808 3.072456 -14.251971 10.545892 -2.736200 7.125000 0.000000 0.000000 8.850800 -19.077900 5.537900 
-0.399071 18.128555 1.993373 -178.685489 36.125775 -177.596177 -1.562705 2.438355 2.916166 -21.028582 5.162348 -1.832474 -1.517148 -0.096313 2.072925 -2.099391 17.661752 -2.643447 0.165500 2.621100 7.225700 -0.861538 -2.041686 0.688120 19.634333 -9.625298 -19.406693 -2.840318 -10.452887 31.454518 3.087776 -19.676156 -14.127671 -0.916700 -6.100400 17.076000 -2.065981 0.600785 7.960505 1.383840 0.701766 2.053989 0.473998 0.377212 -5.710765 -13.182018 -10.216153 -13.442639 9.040414 -11.812298 25.887567 4.639500 -4.954700 16.102600 -6.128730 -0.255353 -1.533645 -83.925328 7.430273 28.840153 16.273270 -22.880404 -3.821314 -0.855503 -1.820696 8.059538 17.201733 21.365137 7.240100 -7.125000 0.000000 0.000000 -11.914700 53.924100 -2.642700 4.961564 1.312414 -0.872896 85.590468 -3.075240 24.952235 -24.371197 33.766416 -7.666057 0.270742 -0.110490 3.202574 -14.370086 10.603807 -2.775100 7.125000 0.000000 0.000000 8.764900 -19.010000 5.496300 
